<svg xmlns="http://www.w3.org/2000/svg" width="512" height="512" viewBox="0 0 512 512" role="img" aria-labelledby="title desc">
  <title id="title">Avatar padrão profissional</title>
  <desc id="desc">Ilustração neutra de usuário corporativo com terno.</desc>
  <defs>
    <linearGradient id="bg" x1="72" y1="46" x2="438" y2="468" gradientUnits="userSpaceOnUse">
      <stop offset="0" stop-color="#EEF4FF"/>
      <stop offset=".5" stop-color="#DCE9FF"/>
      <stop offset="1" stop-color="#C9D9F5"/>
    </linearGradient>
    <linearGradient id="suit" x1="130" y1="305" x2="384" y2="486" gradientUnits="userSpaceOnUse">
      <stop offset="0" stop-color="#13294B"/>
      <stop offset="1" stop-color="#0B1730"/>
    </linearGradient>
    <linearGradient id="skin" x1="185" y1="118" x2="326" y2="288" gradientUnits="userSpaceOnUse">
      <stop offset="0" stop-color="#F2C9A8"/>
      <stop offset="1" stop-color="#DFA77F"/>
    </linearGradient>
    <filter id="shadow" x="-20%" y="-20%" width="140%" height="140%">
      <feDropShadow dx="0" dy="18" stdDeviation="20" flood-color="#10254B" flood-opacity=".18"/>
    </filter>
  </defs>

  <circle cx="256" cy="256" r="248" fill="url(#bg)"/>
  <circle cx="392" cy="110" r="36" fill="#FFFFFF" opacity=".48"/>
  <circle cx="103" cy="176" r="18" fill="#FFFFFF" opacity=".46"/>
  <path d="M84 418c31-74 94-116 172-116s141 42 172 116c-45 46-105 74-172 74s-127-28-172-74Z" fill="url(#suit)" filter="url(#shadow)"/>
  <path d="M183 329l73 144 73-144c-19-14-43-22-73-22s-54 8-73 22Z" fill="#F7FAFF"/>
  <path d="M221 318l35 155 35-155c-10 5-22 8-35 8s-25-3-35-8Z" fill="#FFFFFF"/>
  <path d="M238 353h36l10 91-28 31-28-31 10-91Z" fill="#246BFD"/>
  <path d="M194 329l44 45 18-39-41-28c-9 5-16 12-21 22Zm124 0l-44 45-18-39 41-28c9 5 16 12 21 22Z" fill="#E8EEF8"/>
  <path d="M211 267h90v53c0 25-20 45-45 45s-45-20-45-45v-53Z" fill="#DFA77F"/>
  <path d="M156 177c0-57 41-101 100-101s100 44 100 101v44c0 57-41 103-100 103s-100-46-100-103v-44Z" fill="url(#skin)"/>
  <path d="M161 194c14-53 52-84 105-84 43 0 76 22 91 61-14-62-53-101-101-101-61 0-102 47-102 106v36c1-7 3-13 7-18Z" fill="#2B3554" opacity=".96"/>
  <path d="M205 181c35 11 88 7 125-23 16 21 24 45 25 73 9-70-30-121-98-121-55 0-93 34-101 91 12-11 26-17 49-20Z" fill="#26314F"/>
  <path d="M148 214c-15 0-26 13-23 30l4 20c3 14 13 23 25 23h5v-73h-11Zm216 0c15 0 26 13 23 30l-4 20c-3 14-13 23-25 23h-5v-73h11Z" fill="#DBA27A"/>
  <path d="M204 222c8-8 22-8 31 0m43 0c8-8 22-8 31 0" fill="none" stroke="#6E4A3A" stroke-width="10" stroke-linecap="round"/>
  <path d="M230 272c16 13 37 13 52 0" fill="none" stroke="#8D5D4A" stroke-width="9" stroke-linecap="round"/>
  <path d="M256 229v27" fill="none" stroke="#C78B66" stroke-width="9" stroke-linecap="round"/>
  <path d="M128 434c34 35 79 56 128 56s94-21 128-56" fill="none" stroke="#FFFFFF" stroke-width="2" opacity=".12"/>
</svg>
